<svg xmlns="http://www.w3.org/2000/svg" width="14.703" height="17.497" viewBox="0 0 14.703 17.497">
  <path id="Icon_awesome-apple" data-name="Icon awesome-apple" d="M12.449,10.5A3.647,3.647,0,0,1,14.4,7.184a4.2,4.2,0,0,0-3.309-1.742c-1.387-.109-2.9.809-3.457.809-.586,0-1.93-.77-2.984-.77-2.18.035-4.5,1.738-4.5,5.2a9.736,9.736,0,0,0,.563,3.172c.5,1.434,2.3,4.949,4.188,4.891.984-.023,1.68-.7,2.961-.7,1.242,0,1.887.7,2.984.7,1.9-.027,3.531-3.223,4.008-4.66A3.872,3.872,0,0,1,12.449,10.5ZM10.238,4.082a3.679,3.679,0,0,0,.938-2.832A4.142,4.142,0,0,0,8.523,2.613a3.737,3.737,0,0,0-1,2.809A3.281,3.281,0,0,0,10.238,4.082Z" transform="translate(-0.156 -1.25)"/>
</svg>
