<svg xmlns="http://www.w3.org/2000/svg" width="98.875" height="90.277" viewBox="0 0 98.875 90.277">
  <path id="Icon_material-add-a-photo" data-name="Icon material-add-a-photo" d="M12.9,19.147V6.25h8.6v12.9h12.9v8.6h-12.9v12.9H12.9v-12.9H0v-8.6Zm12.9,25.793v-12.9h12.9v-12.9H68.783l7.867,8.6H90.277a8.623,8.623,0,0,1,8.6,8.6V87.929a8.623,8.623,0,0,1-8.6,8.6H21.495a8.623,8.623,0,0,1-8.6-8.6V44.94ZM55.886,83.63A21.495,21.495,0,1,0,34.391,62.136,21.5,21.5,0,0,0,55.886,83.63ZM42.129,62.136A13.757,13.757,0,1,0,55.886,48.379,13.742,13.742,0,0,0,42.129,62.136Z" transform="translate(0 -6.25)" opacity="0.429"/>
</svg>
