<svg xmlns="http://www.w3.org/2000/svg" width="25.858" height="22.626" viewBox="0 0 25.858 22.626">
  <path id="Icon_awesome-heartbeat" data-name="Icon awesome-heartbeat" d="M16.17,12.571l-2.51,5.02a.807.807,0,0,1-1.459-.03L9.327,11.182,7.812,14.8H3.06l9.216,9.418a.9.9,0,0,0,1.3,0L22.8,14.8h-5.51Zm7.752-8.58L23.8,3.864a6.616,6.616,0,0,0-9.464,0L12.928,5.309,11.519,3.869a6.607,6.607,0,0,0-9.464,0l-.121.121a6.934,6.934,0,0,0-.369,9.2H6.737L8.55,8.834a.81.81,0,0,1,1.485-.02l2.939,6.53L15.448,10.4a.807.807,0,0,1,1.444,0l1.394,2.788h6A6.934,6.934,0,0,0,23.922,3.991Z" transform="translate(0.001 -1.872)" fill="#fff"/>
</svg>
